<svg xmlns="http://www.w3.org/2000/svg" viewBox="0 0 566 153" width="566" height="153" role="img" aria-label="Retro Box">
  <title>Retro Box</title>
  <g>
    <path d="M360 80Q364 64 364 40Q364 17 360 0H280Q276 17 276 40Q276 64 280 80H250Q246 97 246 120Q246 144 250 160H220Q216 177 216 200Q216 224 220 240H120Q124 224 124 200Q124 177 120 160Q124 144 124 120Q124 97 120 80Q124 64 124 40Q124 17 120 0H40Q36 17 36 40Q36 64 40 80Q36 97 36 120Q36 144 40 160Q36 177 36 200Q36 224 40 240Q36 257 36 280Q36 304 40 320Q36 337 36 360Q36 384 40 400Q36 417 36 440Q36 464 40 480Q36 497 36 520Q36 544 40 560H320Q324 544 324 520Q324 497 320 480H360Q364 464 364 440Q364 417 360 400H340Q344 384 344 360Q344 337 340 320H280Q284 304 284 280Q284 257 280 240H300Q304 224 304 200Q304 177 300 160H330Q334 144 334 120Q334 97 330 80ZM256 360Q256 384 260 400Q256 417 256 440Q256 464 260 480H120Q124 464 124 440Q124 417 120 400Q124 384 124 360Q124 337 120 320H260Q256 337 256 360Z" fill="#4DFF5A" transform="translate(33.60 100.80) scale(0.120000 -0.120000)"/>
    <path d="M160 240Q164 224 164 200Q164 177 160 160Q164 144 164 120Q164 97 160 80H320Q324 64 324 40Q324 17 320 0H80Q76 17 76 40Q76 64 80 80Q76 97 76 120Q76 144 80 160Q76 177 76 200Q76 224 80 240Q76 257 76 280Q76 304 80 320Q76 337 76 360Q76 384 80 400Q76 417 76 440Q76 464 80 480Q76 497 76 520Q76 544 80 560H320Q324 544 324 520Q324 497 320 480H160Q164 464 164 440Q164 417 160 400Q164 384 164 360Q164 337 160 320H320Q324 304 324 280Q324 257 320 240Z" fill="#4DFF5A" transform="translate(90.00 100.80) scale(0.120000 -0.120000)"/>
    <path d="M360 480H240Q244 464 244 440Q244 417 240 400Q244 384 244 360Q244 337 240 320Q244 304 244 280Q244 257 240 240Q244 224 244 200Q244 177 240 160Q244 144 244 120Q244 97 240 80Q244 64 244 40Q244 17 240 0H160Q156 17 156 40Q156 64 160 80Q156 97 156 120Q156 144 160 160Q156 177 156 200Q156 224 160 240Q156 257 156 280Q156 304 160 320Q156 337 156 360Q156 384 160 400Q156 417 156 440Q156 464 160 480H40Q36 497 36 520Q36 544 40 560H360Q364 544 364 520Q364 497 360 480Z" fill="#4DFF5A" transform="translate(146.40 100.80) scale(0.120000 -0.120000)"/>
    <path d="M360 80Q364 64 364 40Q364 17 360 0H280Q276 17 276 40Q276 64 280 80H250Q246 97 246 120Q246 144 250 160H220Q216 177 216 200Q216 224 220 240H120Q124 224 124 200Q124 177 120 160Q124 144 124 120Q124 97 120 80Q124 64 124 40Q124 17 120 0H40Q36 17 36 40Q36 64 40 80Q36 97 36 120Q36 144 40 160Q36 177 36 200Q36 224 40 240Q36 257 36 280Q36 304 40 320Q36 337 36 360Q36 384 40 400Q36 417 36 440Q36 464 40 480Q36 497 36 520Q36 544 40 560H320Q324 544 324 520Q324 497 320 480H360Q364 464 364 440Q364 417 360 400H340Q344 384 344 360Q344 337 340 320H280Q284 304 284 280Q284 257 280 240H300Q304 224 304 200Q304 177 300 160H330Q334 144 334 120Q334 97 330 80ZM256 360Q256 384 260 400Q256 417 256 440Q256 464 260 480H120Q124 464 124 440Q124 417 120 400Q124 384 124 360Q124 337 120 320H260Q256 337 256 360Z" fill="#4DFF5A" transform="translate(202.80 100.80) scale(0.120000 -0.120000)"/>
    <path d="M364 280Q364 257 360 240Q364 224 364 200Q364 177 360 160H330Q334 144 334 120Q334 97 330 80H280Q284 64 284 40Q284 17 280 0H120Q116 17 116 40Q116 64 120 80H70Q66 97 66 120Q66 144 70 160H40Q36 177 36 200Q36 224 40 240Q36 257 36 280Q36 304 40 320Q36 337 36 360Q36 384 40 400H70Q66 417 66 440Q66 464 70 480H120Q116 497 116 520Q116 544 120 560H280Q284 544 284 520Q284 497 280 480H330Q334 464 334 440Q334 417 330 400H360Q364 384 364 360Q364 337 360 320Q364 304 364 280ZM276 200Q276 224 280 240Q276 257 276 280Q276 304 280 320Q276 337 276 360Q276 384 280 400H250Q246 417 246 440Q246 464 250 480H150Q154 464 154 440Q154 417 150 400H120Q124 384 124 360Q124 337 120 320Q124 304 124 280Q124 257 120 240Q124 224 124 200Q124 177 120 160H150Q154 144 154 120Q154 97 150 80H250Q246 97 246 120Q246 144 250 160H280Q276 177 276 200Z" fill="#4DFF5A" transform="translate(259.20 100.80) scale(0.120000 -0.120000)"/>
    <path d="M360 320H320Q324 304 324 280Q324 257 320 240H360Q364 224 364 200Q364 177 360 160Q364 144 364 120Q364 97 360 80H320Q324 64 324 40Q324 17 320 0H40Q36 17 36 40Q36 64 40 80Q36 97 36 120Q36 144 40 160Q36 177 36 200Q36 224 40 240Q36 257 36 280Q36 304 40 320Q36 337 36 360Q36 384 40 400Q36 417 36 440Q36 464 40 480Q36 497 36 520Q36 544 40 560H320Q324 544 324 520Q324 497 320 480H360Q364 464 364 440Q364 417 360 400Q364 384 364 360Q364 337 360 320ZM276 360Q276 384 280 400Q276 417 276 440Q276 464 280 480H120Q124 464 124 440Q124 417 120 400Q124 384 124 360Q124 337 120 320H280Q276 337 276 360ZM276 200Q276 224 280 240H120Q124 224 124 200Q124 177 120 160Q124 144 124 120Q124 97 120 80H280Q276 97 276 120Q276 144 280 160Q276 177 276 200Z" fill="#4DFF5A" transform="translate(372.00 100.80) scale(0.120000 -0.120000)"/>
    <path d="M364 280Q364 257 360 240Q364 224 364 200Q364 177 360 160H330Q334 144 334 120Q334 97 330 80H280Q284 64 284 40Q284 17 280 0H120Q116 17 116 40Q116 64 120 80H70Q66 97 66 120Q66 144 70 160H40Q36 177 36 200Q36 224 40 240Q36 257 36 280Q36 304 40 320Q36 337 36 360Q36 384 40 400H70Q66 417 66 440Q66 464 70 480H120Q116 497 116 520Q116 544 120 560H280Q284 544 284 520Q284 497 280 480H330Q334 464 334 440Q334 417 330 400H360Q364 384 364 360Q364 337 360 320Q364 304 364 280ZM276 200Q276 224 280 240Q276 257 276 280Q276 304 280 320Q276 337 276 360Q276 384 280 400H250Q246 417 246 440Q246 464 250 480H150Q154 464 154 440Q154 417 150 400H120Q124 384 124 360Q124 337 120 320Q124 304 124 280Q124 257 120 240Q124 224 124 200Q124 177 120 160H150Q154 144 154 120Q154 97 150 80H250Q246 97 246 120Q246 144 250 160H280Q276 177 276 200Z" fill="#4DFF5A" transform="translate(428.40 100.80) scale(0.120000 -0.120000)"/>
    <path d="M360 80Q364 64 364 40Q364 17 360 0H280Q276 17 276 40Q276 64 280 80H250Q246 97 246 120Q246 144 250 160H230Q226 177 226 200Q226 224 230 240H170Q174 224 174 200Q174 177 170 160H150Q154 144 154 120Q154 97 150 80H120Q124 64 124 40Q124 17 120 0H40Q36 17 36 40Q36 64 40 80H70Q66 97 66 120Q66 144 70 160H110Q106 177 106 200Q106 224 110 240H140Q136 257 136 280Q136 304 140 320H110Q106 337 106 360Q106 384 110 400H70Q66 417 66 440Q66 464 70 480H40Q36 497 36 520Q36 544 40 560H120Q124 544 124 520Q124 497 120 480H150Q154 464 154 440Q154 417 150 400H170Q174 384 174 360Q174 337 170 320H230Q226 337 226 360Q226 384 230 400H250Q246 417 246 440Q246 464 250 480H280Q276 497 276 520Q276 544 280 560H360Q364 544 364 520Q364 497 360 480H330Q334 464 334 440Q334 417 330 400H290Q294 384 294 360Q294 337 290 320H260Q264 304 264 280Q264 257 260 240H290Q294 224 294 200Q294 177 290 160H330Q334 144 334 120Q334 97 330 80Z" fill="#4DFF5A" transform="translate(484.80 100.80) scale(0.120000 -0.120000)"/>
    <rect x="33.60" y="112.80" width="499.20" height="6.60" fill="#4DFF5A"/>
  </g>
</svg>
